Coordinates
version=1
nRows=17
nColumns=40
inDegrees=yes

Units are S.I. units (second, meters, Newtons, ...)
Angles are in degrees.

endheader
time	pelvis_tilt	pelvis_list	pelvis_rotation	pelvis_tx	pelvis_ty	pelvis_tz	hip_flexion_r	hip_adduction_r	hip_rotation_r	knee_angle_r	knee_angle_r_beta	ankle_angle_r	subtalar_angle_r	mtp_angle_r	hip_flexion_l	hip_adduction_l	hip_rotation_l	knee_angle_l	knee_angle_l_beta	ankle_angle_l	subtalar_angle_l	mtp_angle_l	lumbar_extension	lumbar_bending	lumbar_rotation	arm_flex_r	arm_add_r	arm_rot_r	elbow_flex_r	pro_sup_r	wrist_flex_r	wrist_dev_r	arm_flex_l	arm_add_l	arm_rot_l	elbow_flex_l	pro_sup_l	wrist_flex_l	wrist_dev_l
      1.50000000	      6.19428816	     -3.61343957	      4.05300252	      0.44758792	      0.90526225	     -1.44296158	      2.10663731	      6.81367986	     -9.89955609	    -23.88066022	     -0.41679615	     10.67486323	     -5.22553060	      3.28444284	     13.41641397	      7.19068217	      5.85334953	    -58.99576988	     -1.02967043	      0.82766711	      4.93535290	    -13.01121897	     -8.40077901	      6.22861193	      1.10380961	      4.71759199	    -12.10493668	     23.79030328	     15.66455285	     89.95437384	      0.00000000	      0.00000000	      5.72199773	      8.07714070	    -12.24772944	     32.47592293	     89.95437384	      0.00000000	      0.00000000
      1.51000000	      6.08750720	     -3.42165353	      3.74999245	      0.45857885	      0.90529473	     -1.44253784	      1.15918761	      6.66340945	     -9.81995734	    -23.44187757	     -0.40913795	     11.16081006	     -4.98322430	      3.04046550	     14.74270071	      6.84326996	      5.98023903	    -57.43849853	     -1.00249092	      1.53536710	      4.46871683	    -13.02462732	     -8.40612041	      5.90054586	      1.41759544	      5.81655403	    -12.18513731	     23.84281304	     16.03136638	     89.95437384	      0.00000000	      0.00000000	      5.20454397	      8.05521568	    -12.17316393	     30.62661143	     89.95437384	      0.00000000	      0.00000000
      1.52000000	      6.47775756	     -3.10590181	      3.26923161	      0.47016004	      0.90604156	     -1.44220499	     -0.42185674	      6.33129837	     -9.65677670	    -22.95631027	     -0.40066320	     11.55988933	     -4.37610907	      2.49372250	     15.11567301	      6.52883985	      6.61792701	    -55.24663932	     -0.96423576	      2.19058111	      3.86148834	    -13.10386461	     -8.95646262	      5.46380896	      1.86530373	      6.81274193	    -12.42055174	     24.21630387	     16.79308091	     89.95437384	      0.00000000	      0.00000000	      4.61627959	      7.90984755	    -11.53726639	     28.82797750	     89.95437384	      0.00000000	      0.00000000
      1.53000000	      6.19664930	     -3.17558090	      3.04650503	      0.48129665	      0.90524351	     -1.44178942	     -1.03012855	      6.40380293	     -9.85751514	    -22.76511958	     -0.39732629	     11.87387773	     -4.26841459	      2.36117098	     16.55306788	      6.56077260	      6.85470190	    -53.30630307	     -0.93037050	      2.55573977	      3.75534435	    -12.92623334	     -8.71340451	      5.43192689	      1.89987732	      7.91083558	    -12.46583041	     24.22454665	     17.26620844	     89.95437384	      0.00000000	      0.00000000	      3.73897629	      8.07413499	    -11.57016075	     27.47657002	     89.95437384	      0.00000000	      0.00000000
      1.54000000	      6.90623921	     -2.67262937	      2.46575488	      0.49309291	      0.90621766	     -1.44165558	     -3.12918094	      5.83398967	     -9.59395076	    -22.00318753	     -0.38402807	     12.36120726	     -3.27609690	      1.64308999	     16.20661803	      5.98720768	      7.51265124	    -50.41044839	     -0.87982830	      3.07755139	      3.33520379	    -12.96128699	     -9.60155849	      4.80954988	      2.41567920	      9.00320874	    -12.71336859	     25.04660572	     17.91177779	     89.95437384	      0.00000000	      0.00000000	      3.39182686	      7.76781646	    -10.62918620	     25.13475678	     89.95437384	      0.00000000	      0.00000000
      1.55000000	      7.11300156	     -2.51481958	      2.19859564	      0.50440004	      0.90595011	     -1.44178521	     -4.42289263	      5.55660052	     -9.83616676	    -21.59523239	     -0.37690791	     12.64388068	     -2.25844921	      0.61534190	     16.67503071	      5.77422830	      7.98822175	    -47.66170634	     -0.83185370	      3.39647535	      3.16747972	    -12.85815439	     -9.92471344	      4.59163813	      2.48788512	     10.16444792	    -12.87877128	     25.67724828	     18.46540661	     89.95437384	      0.00000000	      0.00000000	      2.73128698	      7.68681956	    -10.13824918	     23.36358606	     89.95437384	      0.00000000	      0.00000000
      1.56000000	      6.75517474	     -2.78036260	      2.02605129	      0.51555836	      0.90437813	     -1.44153593	     -4.89911359	      5.81302981	    -10.11453517	    -21.49423004	     -0.37514508	     12.93612707	     -2.21099738	      0.49808762	     17.96132870	      6.12033383	      8.43939263	    -45.17888502	     -0.78852030	      3.60314871	      3.15315271	    -12.66362127	     -9.57574074	      4.80113411	      2.40611160	     11.23547757	    -12.88464629	     25.66329904	     18.97185611	     89.95437384	      0.00000000	      0.00000000	      1.80525700	      7.80818616	    -10.24358105	     22.01594810	     89.95437384	      0.00000000	      0.00000000
      1.57000000	      6.90830863	     -2.47580578	      1.53122306	      0.52659990	      0.90386471	     -1.44163102	     -6.08598200	      5.41659002	     -9.67521196	    -21.18375621	     -0.36972629	     13.42831589	     -1.73233012	      0.11338231	     18.12619311	      5.71722942	      8.99298513	    -41.80300783	     -0.72960012	      3.26605806	      2.75159832	    -12.46164981	     -9.88982422	      4.41037278	      2.83461848	     12.30048838	    -13.05832010	     26.04625160	     19.53383635	     89.95437384	      0.00000000	      0.00000000	      1.63310321	      7.54450308	    -10.19357024	     19.37691837	     89.95437384	      0.00000000	      0.00000000
      1.58000000	      7.44751570	     -2.25162760	      0.97590535	      0.53844533	      0.90373490	     -1.44150519	     -7.75226485	      4.96162636	    -10.04726983	    -20.84565795	     -0.36382537	     13.69453512	     -0.55810393	     -0.90422101	     17.63199830	      5.61983678	     10.15615886	    -38.21786941	     -0.66702765	      2.84577261	      2.18938488	    -11.94156199	    -10.54753176	      4.09071326	      3.11311111	     13.36194550	    -13.17853030	     26.72781983	     20.19094933	     89.95437384	      0.00000000	      0.00000000	      0.88151858	      7.50703948	     -9.91377660	     17.82062185	     89.95437384	      0.00000000	      0.00000000
      1.59000000	      7.11209888	     -2.42371297	      0.65524755	      0.54929931	      0.90200693	     -1.44151391	     -8.20688461	      5.04198946	    -10.02687110	    -20.81874793	     -0.36335570	     13.97475509	     -0.17675567	     -1.25000658	     18.46020082	      5.84862937	     10.86452405	    -35.12802505	     -0.61309970	      2.20833617	      1.94073064	    -11.56806576	    -10.30006397	      4.23210022	      3.24385022	     14.39425478	    -13.23133623	     26.80917138	     20.71218259	     89.95437384	      0.00000000	      0.00000000	      0.25242937	      7.41811310	    -10.14962044	     16.05063848	     89.95437384	      0.00000000	      0.00000000
      1.60000000	      7.32780607	     -2.27147642	      0.06875079	      0.56089180	      0.90112042	     -1.44144043	     -9.34499700	      4.61459798	    -10.21769432	    -20.76406865	     -0.36240136	     14.35093701	      0.66541364	     -2.06879236	     18.28313834	      5.90297225	     12.48890436	    -31.63645028	     -0.55216022	      1.20342635	      1.32940193	    -10.86852316	    -10.61542440	      3.99453696	      3.58328848	     15.33902641	    -13.29357361	     26.98006608	     21.36915395	     89.95437384	      0.00000000	      0.00000000	     -0.44489444	      7.38002942	    -10.53541260	     14.51625645	     89.95437384	      0.00000000	      0.00000000
      1.61000000	      7.08196631	     -2.35326324	     -0.44979327	      0.57230039	      0.89945422	     -1.44136600	     -9.90071209	      4.49696864	    -10.13091500	    -20.79133385	     -0.36287723	     14.60901955	      1.20506755	     -2.68617670	     18.62182892	      6.14235433	     13.88624360	    -28.25119061	     -0.49307629	      0.12286961	      0.71813426	    -10.25609519	    -10.39848583	      4.02510368	      3.82862965	     16.20695338	    -13.29023868	     26.99176010	     21.96250100	     89.95437384	      0.00000000	      0.00000000	     -1.23125612	      7.30863536	    -11.01929611	     12.99991945	     89.95437384	      0.00000000	      0.00000000
      1.62000000	      6.58784645	     -2.74223327	     -0.79801989	      0.58320960	      0.89736849	     -1.44133124	    -10.12272373	      4.77483287	    -10.01484817	    -20.84706137	     -0.36384986	     14.66070097	      1.53779696	     -2.92844505	     19.27423803	      6.60964538	     14.73407407	    -25.04444708	     -0.43710806	     -0.48066186	      0.17568347	     -9.95436236	     -9.99917036	      4.40958744	      3.96747684	     17.07048328	    -13.27557219	     26.90803846	     22.51246087	     89.95437384	      0.00000000	      0.00000000	     -2.09073014	      7.25186013	    -11.35920662	     11.94030120	     89.95437384	      0.00000000	      0.00000000
      1.63000000	      6.71103823	     -2.47368459	     -1.50862093	      0.59500091	      0.89635632	     -1.44124698	    -11.01480089	      4.11392720	     -9.94957761	    -21.07187217	     -0.36777355	     14.90518194	      2.40801175	     -3.85298751	     18.71454733	      6.55284511	     16.90193984	    -21.42139653	     -0.37387390	     -1.72683821	     -1.71424874	     -9.29331105	    -10.18705468	      4.02152369	      4.37110374	     17.74470768	    -13.21477738	     26.54281263	     23.32232835	     89.95437384	      0.00000000	      0.00000000	     -2.91295749	      7.29893637	    -12.57259624	     10.75504012	     89.95437384	      0.00000000	      0.00000000
      1.64000000	      6.24582708	     -2.73825602	     -1.86840745	      0.60601722	      0.89435285	     -1.44161068	    -11.22170915	      4.16778328	     -9.81033892	    -21.24756833	     -0.37084003	     14.89820999	      2.90210325	     -4.27719741	     19.07845168	      6.83398491	     17.59333433	    -18.37566398	     -0.32071584	     -1.89639582	     -3.00706690	     -9.06956848	     -9.80769428	      4.32118236	      4.46257325	     18.43245924	    -13.20017991	     26.26292817	     24.03387644	     89.95437384	      0.00000000	      0.00000000	     -3.75776163	      7.19490425	    -13.20371690	      9.85176183	     89.95437384	      0.00000000	      0.00000000
      1.65000000	      6.15924540	     -2.59943875	     -2.39729480	      0.61772230	      0.89307816	     -1.44202611	    -11.80051159	      3.62491744	     -9.83998482	    -21.56534220	     -0.37638623	     14.97165431	      3.68988391	     -5.06820855	     18.73019131	      6.78265467	     18.91440613	    -15.33011230	     -0.26756093	     -2.43145833	     -5.05930351	     -8.79225108	     -9.75431217	      4.13789697	      4.70799404	     18.91090540	    -13.13069839	     25.64896527	     24.87493955	     89.95437384	      0.00000000	      0.00000000	     -4.63932662	      7.21835505	    -14.59628369	      9.09205039	     89.95437384	      0.00000000	      0.00000000
      1.66000000	      5.64589290	     -2.85624643	     -2.73982363	      0.62894778	      0.89111691	     -1.44243527	    -11.87883652	      3.68955563	     -9.49846077	    -21.87043288	     -0.38171106	     14.74281825	      4.07495992	     -5.32932234	     19.23363410	      7.09417351	     19.11696155	    -13.30924905	     -0.23229022	     -2.13344408	     -6.10971174	     -8.80549619	     -9.30157460	      4.43386523	      4.71005703	     19.42127228	    -13.05157408	     25.31320716	     25.69567170	     89.95437384	      0.00000000	      0.00000000	     -5.56103216	      7.12383562	    -15.04170049	      8.57948393	     89.95437384	      0.00000000	      0.00000000
